<svg xmlns="http://www.w3.org/2000/svg" viewBox="0 0 64 64" fill="none">
  <!-- Background circle -->
  <circle cx="32" cy="32" r="30" fill="#0a0a0a"/>
  <!-- Abstract S shape with tech nodes -->
  <path d="M20 24c0-2 1.5-3 3.5-3h8c1 0 2 .8 2 2v2l-8 5c-1.5 1-2.5 3-2.5 5v6c0 2 1.5 3 3.5 3h12c2 0 3.5-1 3.5-3V32l-8-6c-1.5-1-2.5-2.5-2.5-4.5v-4c0-1.5.8-2.5 2-2.5h8" stroke="#e63946" stroke-width="4" stroke-linecap="round" stroke-linejoin="round"/>
  <!-- Accent dots (tech nodes) -->
  <circle cx="20" cy="24" r="3" fill="#e63946"/>
  <circle cx="44" cy="40" r="3" fill="#e63946"/>
</svg>
