<svg xmlns="http://www.w3.org/2000/svg" viewBox="0 0 200 48" fill="none">
  <!-- Icono (izquierda) -->
  <g transform="translate(0, 2)">
    <circle cx="24" cy="22" r="22" fill="#0a0a0a"/>
    <path d="M15 16c0-1.5 1.1-2.2 2.6-2.2h6c.8 0 1.4.6 1.4 1.4v1.5l-6 3.8c-1.1.8-1.9 2.3-1.9 3.8v4.5c0 1.5 1.1 2.2 2.6 2.2h9c1.5 0 2.6-.8 2.6-2.2v-6l-6-4.5c-1.1-.8-1.9-1.9-1.9-3.4v-3c0-1.1.6-1.9 1.5-1.9h6" stroke="#e63946" stroke-width="3" stroke-linecap="round" stroke-linejoin="round"/>
    <circle cx="15" cy="16" r="2" fill="#e63946"/>
    <circle cx="33" cy="30" r="2" fill="#e63946"/>
  </g>
  <!-- Wordmark (derecha) -->
  <text x="56" y="32" font-family="Inter, -apple-system, BlinkMacSystemFont, 'Segoe UI', Roboto, sans-serif" font-weight="700" font-size="24" fill="#0a0a0a" letter-spacing="-0.4">SabaTech</text>
</svg>
