<svg xmlns="http://www.w3.org/2000/svg" viewBox="0 0 32 32" fill="none">
  <rect x="1" y="1" width="30" height="30" rx="6" fill="#0F172A" stroke="#06B6D4" stroke-width="2"/>
  <path d="M11 12c0-1.5 1.2-2.2 2.6-2.2h4.8c.7 0 1.2.5 1.2 1.2v1.8l-5 3.2c-1.2.8-1.8 2-1.8 3.4v2.6c0 1.5 1.2 2.2 2.6 2.2h4.8c1.2 0 2-.8 2-2v-4.5l-5-3.8c-1-.7-1.5-1.5-1.5-2.6v-1.8c0-.8.5-1.3 1.2-1.3h4" stroke="#06B6D4" stroke-width="1.5" stroke-linecap="round" stroke-linejoin="round"/>
  <circle cx="11" cy="12" r="1.2" fill="#06B6D4"/>
  <circle cx="21" cy="20" r="1.2" fill="#06B6D4"/>
</svg>
