<svg xmlns="http://www.w3.org/2000/svg" viewBox="0 0 32 32" fill="none">
  <circle cx="16" cy="16" r="15" fill="#0a0a0a"/>
  <path d="M10 11c0-1 .6-1.5 1.3-1.5h4c.4 0 .7.3.7.8v.8l-4 2.2c-.7.5-1.2 1.3-1.2 2.2v2.5c0 1 .6 1.5 1.3 1.5h6.8c.8 0 1.3-.5 1.3-1.5v-3.4l-4-2.5c-.7-.5-1.2-1.2-1.2-2.1v-1.7c0-.6.3-1 .8-1h4" stroke="#e63946" stroke-width="2" stroke-linecap="round" stroke-linejoin="round"/>
  <circle cx="10" cy="11" r="1.2" fill="#e63946"/>
  <circle cx="22" cy="19" r="1.2" fill="#e63946"/>
</svg>
